<?xml version="1.0" encoding="utf-8"?>
<!-- Generator: Adobe Illustrator 25.2.3, SVG Export Plug-In . SVG Version: 6.00 Build 0)  -->
<svg version="1.1" id="Layer_1" xmlns="http://www.w3.org/2000/svg" xmlns:xlink="http://www.w3.org/1999/xlink" x="0px" y="0px"
	 width="60px" height="60px" viewBox="0 0 60 60" style="enable-background:new 0 0 60 60;" xml:space="preserve">
<style type="text/css">
	.st0{fill:url(#SVGID_1_);}
	.st1{fill:url(#SVGID_2_);}
	.st2{fill:url(#SVGID_3_);}
	.st3{fill:url(#SVGID_4_);}
	.st4{fill:url(#SVGID_5_);}
	.st5{fill:url(#SVGID_6_);}
	.st6{fill:url(#SVGID_7_);}
	.st7{fill:url(#SVGID_8_);}
	.st8{fill:url(#SVGID_9_);}
	.st9{fill:url(#SVGID_10_);}
	.st10{fill:url(#SVGID_11_);}
	.st11{fill:url(#SVGID_12_);}
	.st12{fill:url(#SVGID_13_);}
	.st13{fill:url(#SVGID_14_);}
	.st14{fill:url(#SVGID_15_);}
	.st15{fill:url(#SVGID_16_);}
	.st16{fill:#E4E3E7;}
	.st17{fill:url(#SVGID_17_);}
	.st18{fill:url(#SVGID_18_);}
	.st19{fill:url(#SVGID_19_);}
	.st20{fill:url(#SVGID_20_);}
	.st21{fill:url(#SVGID_21_);}
	.st22{fill:url(#SVGID_22_);}
	.st23{fill:url(#SVGID_23_);}
	.st24{fill:url(#SVGID_24_);}
	.st25{fill:url(#SVGID_25_);}
	.st26{fill:url(#SVGID_26_);}
	.st27{opacity:0.5;fill:url(#SVGID_27_);enable-background:new    ;}
</style>
<g id="Layer_2_1_">
	<g id="logos">
		
			<linearGradient id="SVGID_1_" gradientUnits="userSpaceOnUse" x1="21.07" y1="24.89" x2="50.83" y2="24.89" gradientTransform="matrix(1 0 0 -1 0 62.68)">
			<stop  offset="0" style="stop-color:#E9ECED"/>
			<stop  offset="1" style="stop-color:#D3D3D7"/>
		</linearGradient>
		<polygon class="st0" points="50.8,34.5 49.2,38.9 46.5,38.9 43.3,42.7 44.9,44.3 40.6,48.1 38.4,45.9 34.6,48.1 33.5,51.3 
			28.6,51.3 29.7,48.1 27,47 23.8,49.7 21.1,47 24.9,44.3 24.3,41 21.1,41.6 22.7,36.7 26.5,36.2 28.6,33.5 27,30.8 31.4,27.5 
			33,29.1 37.3,27.5 37.8,24.8 43.3,24.3 42.2,27.5 45.4,28.6 48.7,26.4 50.8,28.6 47,31.8 47,34.5 		"/>
		
			<linearGradient id="SVGID_2_" gradientUnits="userSpaceOnUse" x1="36.22" y1="17.315" x2="40.55" y2="17.315" gradientTransform="matrix(1 0 0 -1 0 62.68)">
			<stop  offset="0" style="stop-color:#555E70"/>
			<stop  offset="1" style="stop-color:#D3D5D8"/>
		</linearGradient>
		<polygon class="st1" points="36.2,42.7 38.4,45.9 40.6,48.1 38.4,44.8 		"/>
		
			<linearGradient id="SVGID_3_" gradientUnits="userSpaceOnUse" x1="38.38" y1="17.315" x2="32.43" y2="17.315" gradientTransform="matrix(1 0 0 -1 0 62.68)">
			<stop  offset="0" style="stop-color:#555E70"/>
			<stop  offset="1" style="stop-color:#D3D5D8"/>
		</linearGradient>
		<polygon class="st2" points="34.6,48.1 38.4,45.9 36.2,42.7 32.4,44.8 		"/>
		
			<linearGradient id="SVGID_4_" gradientUnits="userSpaceOnUse" x1="31.35" y1="14.61" x2="34.6" y2="14.61" gradientTransform="matrix(1 0 0 -1 0 62.68)">
			<stop  offset="0" style="stop-color:#555E70"/>
			<stop  offset="1" style="stop-color:#D3D5D8"/>
		</linearGradient>
		<polygon class="st3" points="33.5,51.3 31.4,48.1 32.4,44.8 34.6,48.1 		"/>
		
			<linearGradient id="SVGID_5_" gradientUnits="userSpaceOnUse" x1="26.48" y1="12.985" x2="33.51" y2="12.985" gradientTransform="matrix(1 0 0 -1 0 62.68)">
			<stop  offset="0" style="stop-color:#555E70"/>
			<stop  offset="1" style="stop-color:#D3D5D8"/>
		</linearGradient>
		<polygon class="st4" points="28.6,51.3 26.5,48.1 31.4,48.1 33.5,51.3 		"/>
		
			<linearGradient id="SVGID_6_" gradientUnits="userSpaceOnUse" x1="21.61" y1="15.965" x2="27.02" y2="15.965" gradientTransform="matrix(1 0 0 -1 0 62.68)">
			<stop  offset="0" style="stop-color:#555E70"/>
			<stop  offset="1" style="stop-color:#D3D5D8"/>
		</linearGradient>
		<polygon class="st5" points="23.8,49.7 21.6,46.5 24.9,43.7 27,47 		"/>
		
			<linearGradient id="SVGID_7_" gradientUnits="userSpaceOnUse" x1="18.9" y1="15.965" x2="23.77" y2="15.965" gradientTransform="matrix(1 0 0 -1 0 62.68)">
			<stop  offset="0" style="stop-color:#555E70"/>
			<stop  offset="1" style="stop-color:#D3D5D8"/>
		</linearGradient>
		<polygon class="st6" points="18.9,43.7 21.1,47 23.8,49.7 21.6,46.5 		"/>
		
			<linearGradient id="SVGID_8_" gradientUnits="userSpaceOnUse" x1="29.73" y1="16.775" x2="24.86" y2="16.775" gradientTransform="matrix(1 0 0 -1 0 62.68)">
			<stop  offset="0" style="stop-color:#555E70"/>
			<stop  offset="1" style="stop-color:#D3D5D8"/>
		</linearGradient>
		<polygon class="st7" points="24.9,43.7 27,47 29.7,48.1 27.6,44.8 		"/>
		
			<linearGradient id="SVGID_9_" gradientUnits="userSpaceOnUse" x1="24.31" y1="22.995" x2="18.9" y2="22.995" gradientTransform="matrix(1 0 0 -1 0 62.68)">
			<stop  offset="0" style="stop-color:#555E70"/>
			<stop  offset="1" style="stop-color:#D3D5D8"/>
		</linearGradient>
		<polygon class="st8" points="18.9,38.3 21.1,41.6 24.3,41 22.1,37.8 		"/>
		
			<linearGradient id="SVGID_10_" gradientUnits="userSpaceOnUse" x1="46.5" y1="23.54" x2="41.09" y2="23.54" gradientTransform="matrix(1 0 0 -1 0 62.68)">
			<stop  offset="0" style="stop-color:#555E70"/>
			<stop  offset="1" style="stop-color:#D3D5D8"/>
		</linearGradient>
		<polygon class="st9" points="46.5,38.9 44.3,35.6 41.1,39.4 43.3,42.7 		"/>
		
			<linearGradient id="SVGID_11_" gradientUnits="userSpaceOnUse" x1="48.935" y1="31.38" x2="48.935" y2="23.81" gradientTransform="matrix(1 0 0 -1 0 62.68)">
			<stop  offset="0" style="stop-color:#555E70"/>
			<stop  offset="1" style="stop-color:#D3D5D8"/>
		</linearGradient>
		<polygon class="st10" points="50.8,34.5 48.7,31.3 47,35.6 49.2,38.9 		"/>
		
			<linearGradient id="SVGID_12_" gradientUnits="userSpaceOnUse" x1="44.34" y1="25.435" x2="49.21" y2="25.435" gradientTransform="matrix(1 0 0 -1 0 62.68)">
			<stop  offset="0" style="stop-color:#555E70"/>
			<stop  offset="1" style="stop-color:#D3D5D8"/>
		</linearGradient>
		<polygon class="st11" points="49.2,38.9 47,35.6 44.3,35.6 46.5,38.9 		"/>
		
			<linearGradient id="SVGID_13_" gradientUnits="userSpaceOnUse" x1="44.88" y1="34.09" x2="50.83" y2="34.09" gradientTransform="matrix(1 0 0 -1 0 62.68)">
			<stop  offset="0" style="stop-color:#555E70"/>
			<stop  offset="1" style="stop-color:#D3D5D8"/>
		</linearGradient>
		<polygon class="st12" points="48.7,25.3 50.8,28.6 47,31.8 44.9,28.6 		"/>
		
			<linearGradient id="SVGID_14_" gradientUnits="userSpaceOnUse" x1="47.04" y1="31.115" x2="44.88" y2="31.115" gradientTransform="matrix(1 0 0 -1 0 62.68)">
			<stop  offset="0" style="stop-color:#555E70"/>
			<stop  offset="1" style="stop-color:#D3D5D8"/>
		</linearGradient>
		<polygon class="st13" points="44.9,31.3 47,34.5 47,31.8 44.9,28.6 		"/>
		
			<linearGradient id="SVGID_15_" gradientUnits="userSpaceOnUse" x1="40.01" y1="38.42" x2="43.25" y2="38.42" gradientTransform="matrix(1 0 0 -1 0 62.68)">
			<stop  offset="0" style="stop-color:#555E70"/>
			<stop  offset="1" style="stop-color:#D3D5D8"/>
		</linearGradient>
		<polygon class="st14" points="41.1,21 43.3,24.3 42.2,27.5 40,24.3 		"/>
		
			<linearGradient id="SVGID_16_" gradientUnits="userSpaceOnUse" x1="29.0187" y1="32.9787" x2="40.1087" y2="21.7087" gradientTransform="matrix(1 0 0 -1 0 62.68)">
			<stop  offset="0" style="stop-color:#FEFEFE"/>
			<stop  offset="0.34" style="stop-color:#C8C3C2"/>
			<stop  offset="0.67" style="stop-color:#EAEDEE"/>
			<stop  offset="1" style="stop-color:#F1F2F3"/>
		</linearGradient>
		<polygon class="st15" points="26.7,47.9 27.7,44.8 24.8,43.6 21.6,46.3 19.1,43.8 22.8,41.1 22.3,37.6 19.1,38.2 20.6,33.6 
			24.3,33 26.6,30.2 25,27.5 29.2,24.4 30.8,26 35.3,24.4 35.8,21.7 40.9,21.2 39.8,24.4 43.3,25.5 46.5,23.4 48.5,25.3 44.7,28.5 
			44.7,31.4 48.5,31.4 47,35.5 44.3,35.5 40.9,39.4 42.5,41 38.4,44.6 36.2,42.5 32.4,44.7 31.3,47.9 		"/>
		<path class="st16" d="M40.7,21.3l-1,2.9l-0.1,0.3l0.3,0.1l3.3,1.1h0.1l0.1-0.1l3.1-2l1.8,1.8l-3.6,3l-0.1,0.1v3.1h3.7l-1.4,3.8
			h-2.6l-0.1,0.1l-3.3,3.8l-0.2,0.2l0.2,0.2l1.4,1.4l-3.9,3.4l-2-2l-0.1-0.2l-0.2,0.1l-3.8,2.2h-0.1v0.1l-1,3.1h-4.4l1-2.9l0.1-0.2
			l-0.2-0.1L25,43.4l-0.1,0l-0.1,0.1l-3.1,2.6l-2.3-2.3l3.5-2.5l0.1-0.1V41l-0.5-3.3l-0.1-0.3h-0.3L19.3,38l1.4-4.3l3.6-0.5h0.1
			l0.1-0.1l2.2-2.7l0.1-0.1l-0.1-0.2l-1.5-2.5l4-3l1.5,1.5l0.1,0.1l0.2-0.1l4.3-1.6l0.1,0v-0.1l0.5-2.5L40.7,21.3 M41.1,21l-5.4,0.5
			l-0.5,2.7l-4.3,1.6l-1.6-1.6l-4.4,3.3l1.6,2.7l-2.2,2.7l-3.8,0.5l-1.6,4.9l3.3-0.5l0.6,3.2l-3.8,2.7l2.7,2.7l3.2-2.7l2.7,1.1
			l-1.1,3.3h4.9l1.1-3.3l3.8-2.2l2.2,2.2l4.4-3.8l-1.6-1.6l3.3-3.8H47l1.6-4.3h-3.8v-2.7l3.8-3.3l-2.2-2.2l-3.3,2.2L40,24.3L41.1,21
			L41.1,21z"/>
		
			<linearGradient id="SVGID_17_" gradientUnits="userSpaceOnUse" x1="38.38" y1="18.125" x2="44.88" y2="18.125" gradientTransform="matrix(1 0 0 -1 0 62.68)">
			<stop  offset="0" style="stop-color:#555E70"/>
			<stop  offset="1" style="stop-color:#D3D5D8"/>
		</linearGradient>
		<polygon class="st17" points="44.9,44.3 42.7,41 38.4,44.8 40.6,48.1 		"/>
		
			<linearGradient id="SVGID_18_" gradientUnits="userSpaceOnUse" x1="25.8992" y1="23.4111" x2="40.3892" y2="33.2711" gradientTransform="matrix(1 0 0 -1 1.873703e-03 62.6732)">
			<stop  offset="0" style="stop-color:#928F8E"/>
			<stop  offset="0.12" style="stop-color:#979596"/>
			<stop  offset="0.39" style="stop-color:#595E71"/>
			<stop  offset="0.6" style="stop-color:#8F9295"/>
			<stop  offset="0.78" style="stop-color:#FFFFF1"/>
			<stop  offset="1" style="stop-color:#BDB7B1"/>
		</linearGradient>
		<path class="st18" d="M30.1,29.6c4-2.7,8.6-2.9,10.4-0.3c1.8,2.6,0,6.8-4,9.6c-4,2.7-8.6,2.9-10.4,0.3
			C24.3,36.7,26.1,32.4,30.1,29.6z"/>
		
			<linearGradient id="SVGID_19_" gradientUnits="userSpaceOnUse" x1="26.8534" y1="24.4456" x2="38.2234" y2="33.1956" gradientTransform="matrix(1 0 0 -1 1.657307e-03 62.6731)">
			<stop  offset="0" style="stop-color:#726F80"/>
			<stop  offset="0.38" style="stop-color:#8A91B0"/>
			<stop  offset="1" style="stop-color:#B3BFD6"/>
		</linearGradient>
		<path class="st19" d="M30,29.7c3.4-2.4,7.4-2.5,8.9-0.3s0,5.9-3.4,8.2S28,40.2,26.5,38C25,35.8,26.5,32.1,30,29.7z"/>
		
			<linearGradient id="SVGID_20_" gradientUnits="userSpaceOnUse" x1="31.3107" y1="29.4662" x2="39.8507" y2="35.7762" gradientTransform="matrix(0.9986 4.078744e-03 4.078744e-03 -0.9986 -3.5999 65.6912)">
			<stop  offset="0" style="stop-color:#746D75"/>
			<stop  offset="0.48" style="stop-color:#FFFFFF"/>
			<stop  offset="0.87" style="stop-color:#6E6571"/>
		</linearGradient>
		<path class="st20" d="M30.2,30.3c2.5-1.7,5.3-1.8,6.4-0.2c1.1,1.6,0,4.2-2.5,5.9c-2.5,1.7-5.3,1.8-6.4,0.2
			C26.6,34.7,27.7,32,30.2,30.3z"/>
		
			<linearGradient id="SVGID_21_" gradientUnits="userSpaceOnUse" x1="30.2193" y1="27.121" x2="34.6393" y2="30.371" gradientTransform="matrix(1 0 0 -1 1.657307e-03 62.6731)">
			<stop  offset="0" style="stop-color:#726F80"/>
			<stop  offset="0.38" style="stop-color:#8A91B0"/>
			<stop  offset="1" style="stop-color:#B3BFD6"/>
		</linearGradient>
		<path class="st21" d="M31.5,32c1.5-1,3.2-1.1,3.8-0.1s0,2.5-1.5,3.5c-1.5,1-3.2,1.1-3.8,0.1C29.4,34.6,30.1,33,31.5,32z"/>
		
			<linearGradient id="SVGID_22_" gradientUnits="userSpaceOnUse" x1="30.1117" y1="34.6958" x2="32.8117" y2="35.7858" gradientTransform="matrix(1 0 0 -1 0 62.68)">
			<stop  offset="0" style="stop-color:#485E00"/>
			<stop  offset="0.59" style="stop-color:#E5F095"/>
			<stop  offset="1" style="stop-color:#E0EC92"/>
		</linearGradient>
		<path class="st22" d="M33.5,33.5c-0.8-4.3-2.9-8.3-6-11.4l-0.5,0.5c2.6,3,4.1,6.8,4.3,10.8C31.4,33.5,31.9,34.5,33.5,33.5z"/>
		
			<linearGradient id="SVGID_23_" gradientUnits="userSpaceOnUse" x1="27.9715" y1="39.0042" x2="42.2215" y2="54.3442" gradientTransform="matrix(1 0 0 -1 0 62.68)">
			<stop  offset="0" style="stop-color:#485E00"/>
			<stop  offset="0.59" style="stop-color:#E5F095"/>
			<stop  offset="1" style="stop-color:#E0EC92"/>
		</linearGradient>
		<path class="st23" d="M43.3,8c0,0-19.5,6-15.1,15.7C28.1,23.7,33,31.3,43.3,8z"/>
		
			<linearGradient id="SVGID_24_" gradientUnits="userSpaceOnUse" x1="27.8495" y1="39.2666" x2="7.0495" y2="42.5065" gradientTransform="matrix(1 0 0 -1 0 62.68)">
			<stop  offset="0" style="stop-color:#485E00"/>
			<stop  offset="0.59" style="stop-color:#E5F095"/>
			<stop  offset="1" style="stop-color:#E0EC92"/>
		</linearGradient>
		<path class="st24" d="M7,20.5c0,0,18.9-7.6,21.1,3.3C28.1,23.7,31.4,33.5,7,20.5z"/>
		
			<linearGradient id="SVGID_25_" gradientUnits="userSpaceOnUse" x1="28.5154" y1="38.5446" x2="43.7854" y2="53.8246" gradientTransform="matrix(1 0 0 -1 0 62.68)">
			<stop  offset="0" style="stop-color:#485E00"/>
			<stop  offset="1" style="stop-color:#DFEC90"/>
		</linearGradient>
		<path class="st25" d="M28.1,23.2c-0.4-0.8-0.6-1.7-0.6-2.5c0,1.1,0.2,2.1,0.6,3.1c0,0,4.9,7.6,15.1-15.7l0,0
			C33.2,30.5,28.1,23.2,28.1,23.2z"/>
		
			<linearGradient id="SVGID_26_" gradientUnits="userSpaceOnUse" x1="27.9586" y1="36.6818" x2="7.0386" y2="40.2918" gradientTransform="matrix(1 0 0 -1 0 62.68)">
			<stop  offset="0" style="stop-color:#4E5F09"/>
			<stop  offset="1" style="stop-color:#E1ED98"/>
		</linearGradient>
		<path class="st26" d="M7,20.5L7,20.5c20.1,10.7,21.4,6,21.2,4C28.1,26.5,24.9,29.9,7,20.5z"/>
		
			<linearGradient id="SVGID_27_" gradientUnits="userSpaceOnUse" x1="28.433" y1="38.1442" x2="23.923" y2="51.3142" gradientTransform="matrix(1 0 0 -1 0 62.68)">
			<stop  offset="0" style="stop-color:#485E00"/>
			<stop  offset="1" style="stop-color:#AECB5C"/>
		</linearGradient>
		<path class="st27" d="M37.8,11.3L37.8,11.3L37.8,11.3z M37.8,11.3c-2.7,1.8-5.1,3.9-7.2,6.5l0,0c0.5-1.6,1.3-3.1,2.5-4.4
			c-0.9,1-3.1,3.5-3,5.1l0,0c-1.2,1.5-1.9,3.2-2,5.1l0,0c-0.9-1.2-2.2-2.1-3.6-2.6l0,0c-1.4-2.2-5.1-2.1-5.1-2.1
			c3.2,0.5,3.9,1.4,4,1.7c-3.4-0.8-7-1.1-10.5-0.6c4.1-0.5,8.2,0.1,11.9,1.7c-1.9-0.3-3.8,0.1-5.4,1c2-0.7,4.2-0.8,6.3-0.5
			c1,0.5,1.9,1.1,2.7,1.8l0.2,0.2c0.1-1.5,0.6-2.9,1.3-4.2c1.7-0.7,3.3-1.6,4.7-2.8c-1.3,0.9-2.8,1.7-4.4,2.2
			c0.7-1.2,1.4-2.2,2.3-3.3c1.6-0.3,3-1,4.2-2.1c-1.2,0.9-2.6,1.6-4.1,2C34.2,14.2,35.9,12.7,37.8,11.3z M33.2,13.3l0.3-0.4
			L33.2,13.3z"/>
	</g>
</g>
</svg>
