<?xml version="1.0" encoding="utf-8"?>
<!-- Generator: Adobe Illustrator 25.2.3, SVG Export Plug-In . SVG Version: 6.00 Build 0)  -->
<svg version="1.1" id="Layer_1" xmlns="http://www.w3.org/2000/svg" xmlns:xlink="http://www.w3.org/1999/xlink" x="0px" y="0px"
	 width="60px" height="60px" viewBox="0 0 60 60" style="enable-background:new 0 0 60 60;" xml:space="preserve">
<style type="text/css">
	.st0{fill:url(#SVGID_1_);}
	.st1{fill:#090909;}
	.st2{fill:url(#SVGID_2_);}
	.st3{fill:#555555;}
	.st4{fill:#62AEFB;}
</style>
<g id="Layer_2_1_">
	<g id="logos">
		
			<linearGradient id="SVGID_1_" gradientUnits="userSpaceOnUse" x1="30.145" y1="51.9999" x2="30.145" y2="11.9999" gradientTransform="matrix(1 0 0 -1 0 62)">
			<stop  offset="0" style="stop-color:#FFFFFF"/>
			<stop  offset="1" style="stop-color:#CBD9E2"/>
		</linearGradient>
		<path class="st0" d="M14,10h32.3c1.7,0,3,1.3,3,3v34c0,1.7-1.3,3-3,3H14c-1.7,0-3-1.3-3-3V13C11,11.3,12.3,10,14,10z"/>
		<path class="st1" d="M41.9,10v4.6H18.4V10h-5.7c-0.9,0-1.7,0.8-1.7,1.7v36.6c0,0.9,0.8,1.7,1.7,1.7h5.7v-4.6h23.4V50h5.7
			c0.9,0,1.7-0.8,1.7-1.7V11.7c0-0.9-0.8-1.7-1.7-1.7H41.9z M16.1,47.1h-2.8c-0.3,0-0.6-0.2-0.6-0.6c0,0,0,0,0,0v-1.7
			c0-0.3,0.3-0.6,0.6-0.6c0,0,0,0,0,0h2.8c0.3,0,0.6,0.2,0.6,0.5c0,0,0,0,0,0v1.7C16.7,46.9,16.5,47.1,16.1,47.1
			C16.2,47.1,16.1,47.1,16.1,47.1z M16.1,40.9h-2.8c-0.3,0-0.6-0.3-0.6-0.6v-1.7c0-0.3,0.3-0.6,0.6-0.6h2.8c0.3,0,0.6,0.3,0.6,0.6
			v1.7C16.7,40.6,16.5,40.9,16.1,40.9C16.1,40.9,16.1,40.9,16.1,40.9z M16.1,34.6h-2.8c-0.3,0-0.6-0.2-0.6-0.6c0,0,0,0,0,0v-1.7
			c0-0.3,0.3-0.6,0.6-0.6h2.8c0.3,0,0.6,0.3,0.6,0.6c0,0,0,0,0,0V34C16.7,34.3,16.5,34.6,16.1,34.6C16.2,34.6,16.1,34.6,16.1,34.6z
			 M16.1,28.3h-2.8c-0.3,0-0.6-0.3-0.6-0.6V26c0-0.3,0.3-0.6,0.6-0.6c0,0,0,0,0,0h2.8c0.3,0,0.6,0.2,0.6,0.5c0,0,0,0,0,0v1.7
			C16.7,28,16.5,28.3,16.1,28.3C16.1,28.3,16.1,28.3,16.1,28.3z M16.1,22h-2.8c-0.3,0-0.6-0.3-0.6-0.6v-1.7c0-0.3,0.3-0.6,0.6-0.6
			h2.8c0.3,0,0.6,0.3,0.6,0.6v1.7C16.7,21.7,16.5,22,16.1,22z M16.1,15.7h-2.8c-0.3,0-0.6-0.2-0.6-0.6c0,0,0,0,0,0v-1.7
			c0-0.3,0.3-0.6,0.6-0.6c0,0,0,0,0,0h2.8c0.3,0,0.6,0.2,0.6,0.5c0,0,0,0,0,0v1.7C16.7,15.4,16.5,15.7,16.1,15.7
			C16.2,15.7,16.1,15.7,16.1,15.7z M41.9,42.6H18.4V17.4h23.4V42.6z M47,47.1h-2.9c-0.3,0-0.6-0.3-0.6-0.6v-1.7
			c0-0.3,0.3-0.6,0.6-0.6H47c0.3,0,0.6,0.2,0.6,0.5c0,0,0,0,0,0v1.7C47.6,46.9,47.3,47.1,47,47.1C47,47.1,47,47.1,47,47.1z M47,40.9
			h-2.9c-0.3,0-0.6-0.3-0.6-0.6v-1.7c0-0.3,0.3-0.6,0.6-0.6H47c0.3,0,0.6,0.3,0.6,0.6v1.7C47.6,40.6,47.3,40.9,47,40.9
			C47,40.9,47,40.9,47,40.9z M47,34.6h-2.9c-0.3,0-0.6-0.3-0.6-0.6v-1.7c0-0.3,0.3-0.6,0.6-0.6H47c0.3,0,0.6,0.3,0.6,0.6
			c0,0,0,0,0,0V34C47.6,34.3,47.3,34.6,47,34.6C47,34.6,47,34.6,47,34.6z M47,28.3h-2.9c-0.3,0-0.6-0.3-0.6-0.6V26
			c0-0.3,0.3-0.6,0.6-0.6H47c0.3,0,0.6,0.2,0.6,0.5c0,0,0,0,0,0v1.7C47.6,28,47.3,28.3,47,28.3C47,28.3,47,28.3,47,28.3z M47,22
			h-2.9c-0.3,0-0.6-0.3-0.6-0.6v-1.7c0-0.3,0.3-0.6,0.6-0.6H47c0.3,0,0.6,0.3,0.6,0.6v1.7C47.6,21.7,47.3,22,47,22z M47,15.7h-2.9
			c-0.3,0-0.6-0.3-0.6-0.6v-1.7c0-0.3,0.3-0.6,0.6-0.6H47c0.3,0,0.6,0.2,0.6,0.5c0,0,0,0,0,0v1.7C47.6,15.4,47.3,15.7,47,15.7
			C47,15.7,47,15.7,47,15.7z"/>
		
			<linearGradient id="SVGID_2_" gradientUnits="userSpaceOnUse" x1="36.245" y1="52" x2="36.245" y2="11.9999" gradientTransform="matrix(1 0 0 -1 0 62)">
			<stop  offset="0" style="stop-color:#7E95B3"/>
			<stop  offset="1" style="stop-color:#090909"/>
		</linearGradient>
		<path class="st2" d="M47.6,10h-5.7v4.6H32l-0.8,2.9h10.7v25.1H24l-0.8,2.9h18.7V50h5.7c0.9,0,1.7-0.8,1.7-1.7V11.7
			C49.3,10.8,48.5,10,47.6,10C47.6,10,47.6,10,47.6,10z M47.6,46.6c0,0.3-0.2,0.6-0.5,0.6c0,0,0,0,0,0h-2.9c-0.3,0-0.6-0.3-0.6-0.6
			v-1.7c0-0.3,0.3-0.6,0.6-0.6H47c0.3,0,0.6,0.2,0.6,0.5c0,0,0,0,0,0V46.6z M47.6,40.3c0,0.3-0.3,0.6-0.6,0.6h-2.9
			c-0.3,0-0.6-0.3-0.6-0.6v-1.7c0-0.3,0.3-0.6,0.6-0.6H47c0.3,0,0.6,0.3,0.6,0.6V40.3z M47.6,34c0,0.3-0.2,0.6-0.5,0.6c0,0,0,0,0,0
			h-2.9c-0.3,0-0.6-0.3-0.6-0.6v-1.7c0-0.3,0.3-0.6,0.6-0.6H47c0.3,0,0.6,0.3,0.6,0.6c0,0,0,0,0,0V34z M47.6,27.7
			c0,0.3-0.2,0.6-0.6,0.6c0,0,0,0,0,0h-2.9c-0.3,0-0.6-0.3-0.6-0.6V26c0-0.3,0.3-0.6,0.6-0.6H47c0.3,0,0.6,0.2,0.6,0.5c0,0,0,0,0,0
			V27.7z M47.6,21.4c0,0.3-0.3,0.6-0.6,0.6l0,0h-2.9c-0.3,0-0.6-0.3-0.6-0.6v-1.7c0-0.3,0.3-0.6,0.6-0.6H47c0.3,0,0.6,0.3,0.6,0.6
			V21.4z M47.6,15.1c0,0.3-0.2,0.6-0.5,0.6c0,0,0,0,0,0h-2.9c-0.3,0-0.6-0.3-0.6-0.6v-1.7c0-0.3,0.3-0.6,0.6-0.6H47
			c0.3,0,0.6,0.2,0.6,0.5c0,0,0,0,0,0V15.1z"/>
		<path class="st3" d="M40.8,30h-1.1c-0.2-5-4.2-9-9.1-9.1v-1.1h-0.6v1.1c-5,0.2-9,4.2-9.2,9.2h-1.1v0.6h1.1c0.2,5,4.2,9,9.2,9.2
			v1.1h0.6v-1.1c5-0.2,8.9-4.2,9.1-9.2h1.1V30z M39,30h-1.7c-0.2-3.7-3.1-6.6-6.8-6.8v-1.8C35.1,21.6,38.9,25.4,39,30z M36.7,30.7
			c-0.2,3.4-2.8,6.1-6.2,6.2v-1.2h-0.6v1.1c-3.4-0.1-6.1-2.8-6.3-6.2h1.2V30h-1.2c0.2-3.4,2.9-6.1,6.3-6.2v1.1h0.6v-1.2
			c3.4,0.2,6.1,2.9,6.2,6.3h-1.1v0.6H36.7z M29.9,21.5v1.7c-3.7,0.1-6.7,3.1-6.9,6.8h-1.7C21.5,25.3,25.2,21.6,29.9,21.5L29.9,21.5z
			 M21.3,30.6H23c0.2,3.7,3.1,6.7,6.8,6.8v1.7C25.2,39,21.5,35.3,21.3,30.6z M30.5,39.1v-1.7c3.7-0.2,6.6-3.1,6.8-6.8H39
			C38.8,35.2,35.1,39,30.5,39.1z"/>
		<path class="st4" d="M30.5,21.5v1.7c1.9,0.1,3.7,0.9,5,2.4l1.2-1.2C35.1,22.6,32.9,21.5,30.5,21.5z"/>
		<polygon class="st1" points="32.7,25.4 28.7,25.4 28.7,29.4 31.6,29.4 31.6,34 29.9,34 29.9,31.7 28.7,31.7 28.7,35.1 32.7,35.1 
			32.7,28.9 29.9,28.9 29.9,26 32.7,26 		"/>
	</g>
</g>
</svg>
